<svg width="20" height="20" viewBox="0 0 20 20" fill="none" xmlns="http://www.w3.org/2000/svg">
<path fill-rule="evenodd" clip-rule="evenodd" d="M18.6577 6.34201C19.22 6.34339 19.7223 6.69089 19.9175 7.21362C20.1112 7.7371 19.9566 8.32478 19.5296 8.68781L14.9066 12.486L16.8431 18.2464C17.0276 18.7963 16.8321 19.4013 16.3596 19.7426C15.8871 20.0839 15.2462 20.0831 14.7746 19.7406L10.0003 16.2705L5.22514 19.7388C4.75298 20.082 4.11097 20.0825 3.63827 19.74C3.16557 19.3976 2.97107 18.7911 3.15754 18.241L5.09311 12.4842L0.480199 8.69508C0.0475037 8.33517 -0.112028 7.7455 0.0809244 7.21927C0.273877 6.69304 0.778145 6.34253 1.343 6.34201H6.7912L8.73593 0.881502C8.92641 0.355702 9.42777 0.00368409 9.99136 2.87273e-05C10.555 -0.00362663 11.0609 0.341858 11.2583 0.865142L13.2095 6.34201H18.6577ZM12.9693 12.4724C12.8498 12.1165 12.9631 11.7245 13.2544 11.4853L16.8074 8.56238C16.8821 8.50141 16.9101 8.4005 16.8775 8.31021C16.8448 8.21993 16.7584 8.15972 16.6616 8.15975H12.5585C12.1696 8.15965 11.823 7.9163 11.6939 7.55263L10.2168 3.40089C10.1846 3.30971 10.0978 3.24865 10.0004 3.24865C9.90292 3.24865 9.81613 3.30971 9.78398 3.40089L8.30594 7.55263C8.17681 7.9163 7.83026 8.15965 7.44131 8.15975H3.3382C3.24142 8.15972 3.15505 8.21993 3.12236 8.31021C3.08967 8.4005 3.1177 8.50141 3.19241 8.56238L6.74813 11.4817C7.03918 11.7211 7.15206 12.1131 7.03237 12.4687L5.61302 16.6923C5.58187 16.786 5.61538 16.889 5.69592 16.9471C5.77647 17.0051 5.88562 17.005 5.96602 16.9467L9.45665 14.4083C9.77944 14.1735 10.2185 14.1735 10.5413 14.4083L14.0365 16.9513C14.1171 17.0099 14.2267 17.0101 14.3074 16.9517C14.3881 16.8933 14.4213 16.7898 14.3895 16.6959L12.9693 12.4724Z" fill="#FF5252"/>
</svg>
